<svg width="54" height="53" viewBox="0 0 54 53" fill="none" xmlns="http://www.w3.org/2000/svg">
<g clip-path="url(#clip0_601_8)">
<path d="M27.1474 52.765C41.718 52.765 53.5299 40.9531 53.5299 26.3825C53.5299 11.8118 41.718 0 27.1474 0C12.5767 0 0.764893 11.8118 0.764893 26.3825C0.764893 40.9531 12.5767 52.765 27.1474 52.765Z" fill="#EEA200"/>
<path fill-rule="evenodd" clip-rule="evenodd" d="M12.7071 26.104C20.3982 22.7531 25.5267 20.544 28.0928 19.4767C35.4195 16.4293 36.9419 15.8999 37.9342 15.8824C38.1525 15.8786 38.6405 15.9327 38.9565 16.1892C39.2234 16.4057 39.2969 16.6983 39.332 16.9036C39.3672 17.109 39.4109 17.5767 39.3761 17.9422C38.9791 22.1139 37.2611 32.2375 36.3871 36.9099C36.0173 38.8869 35.2891 39.5498 34.5841 39.6147C33.0521 39.7557 31.8887 38.6022 30.4048 37.6295C28.0828 36.1074 26.771 35.1599 24.5171 33.6746C21.9123 31.9581 23.6009 31.0147 25.0853 29.4728C25.4738 29.0693 32.2242 22.9294 32.3548 22.3724C32.3712 22.3027 32.3864 22.043 32.2321 21.9059C32.0778 21.7688 31.8501 21.8157 31.6859 21.853C31.453 21.9058 27.7435 24.3576 20.5576 29.2084C19.5047 29.9314 18.551 30.2836 17.6965 30.2652C16.7545 30.2448 14.9425 29.7326 13.5954 29.2947C11.9432 28.7576 10.6301 28.4737 10.7444 27.5616C10.804 27.0865 11.4582 26.6006 12.7071 26.104Z" fill="black"/>
</g>
<defs>
<clipPath id="clip0_601_8">
<rect width="52.765" height="52.765" fill="white" transform="translate(0.764893)"/>
</clipPath>
</defs>
</svg>
