<svg width="53" height="53" viewBox="0 0 53 53" fill="none" xmlns="http://www.w3.org/2000/svg">
<g clip-path="url(#clip0_601_3)">
<path d="M0 25.3272C0 13.3878 0 7.41816 3.70908 3.70908C7.41816 0 13.3878 0 25.3272 0H27.4378C39.3772 0 45.3468 0 49.0559 3.70908C52.765 7.41816 52.765 13.3878 52.765 25.3272V27.4378C52.765 39.3772 52.765 45.3468 49.0559 49.0559C45.3468 52.765 39.3772 52.765 27.4378 52.765H25.3272C13.3878 52.765 7.41816 52.765 3.70908 49.0559C0 45.3468 0 39.3772 0 27.4378V25.3272Z" fill="#EEA200"/>
<path d="M27.9848 37.9904C15.7259 37.9904 8.73373 29.6716 8.44238 15.8291H14.583C14.7847 25.9891 19.3117 30.2927 22.8974 31.1801V15.8291H28.6797V24.5916C32.2207 24.2145 35.9405 20.2214 37.1955 15.8291H42.9777C42.014 21.2419 37.98 25.2349 35.1114 26.8765C37.98 28.2075 42.5745 31.6903 44.3226 37.9904H37.9576C36.5905 33.7755 33.1844 30.5146 28.6797 30.0709V37.9904H27.9848Z" fill="black"/>
</g>
<defs>
<clipPath id="clip0_601_3">
<rect width="52.765" height="52.765" fill="white"/>
</clipPath>
</defs>
</svg>
