<svg width="54" height="53" viewBox="0 0 54 53" fill="none" xmlns="http://www.w3.org/2000/svg">
<path d="M0.529785 25.3272C0.529785 13.3878 0.529785 7.41816 4.23887 3.70908C7.94795 0 13.9176 0 25.857 0H27.9676C39.907 0 45.8766 0 49.5857 3.70908C53.2948 7.41816 53.2948 13.3878 53.2948 25.3272V27.4378C53.2948 39.3772 53.2948 45.3468 49.5857 49.0559C45.8766 52.765 39.907 52.765 27.9676 52.765H25.857C13.9176 52.765 7.94795 52.765 4.23887 49.0559C0.529785 45.3468 0.529785 39.3772 0.529785 27.4378V25.3272Z" fill="#EEA200"/>
<path d="M19.948 36.9153L20.431 37.1541C22.444 38.3478 24.6983 38.9048 26.9528 38.9048C34.0381 38.9048 39.8351 33.175 39.8351 26.1718C39.8351 22.8294 38.4663 19.5665 36.0509 17.179C33.6355 14.7915 30.4148 13.4387 26.9528 13.4387C19.8675 13.4387 14.0704 19.1686 14.151 26.2514C14.151 28.6388 14.8756 30.9468 16.0833 32.9362L16.4053 33.4138L15.1172 38.1091L19.948 36.9153Z" fill="#EEA200"/>
<path d="M37.4196 15.9057C34.6821 13.1204 30.898 11.6083 27.0332 11.6083C18.8209 11.6083 12.2186 18.2136 12.2991 26.2513C12.2991 28.7979 13.0237 31.265 14.2315 33.4933L12.1381 41.0535L19.948 39.064C22.1219 40.2578 24.5372 40.8149 26.9528 40.8149C35.0847 40.8149 41.6869 34.2095 41.6869 26.1719C41.6869 22.2723 40.157 18.6115 37.4196 15.9057ZM27.0332 38.3479C24.8594 38.3479 22.6855 37.7909 20.8336 36.6767L20.3506 36.438L15.6808 37.6316L16.8884 33.0956L16.5664 32.618C13.0237 26.9678 14.7146 19.4869 20.5116 15.9852C26.3086 12.4837 33.7965 14.1549 37.3392 19.8848C40.8817 25.6147 39.1909 33.0158 33.394 36.5175C31.542 37.7112 29.2877 38.3479 27.0332 38.3479ZM34.1185 29.5144L33.2329 29.1165C33.2329 29.1165 31.9447 28.5594 31.1395 28.1614C31.059 28.1614 30.9785 28.0818 30.898 28.0818C30.6564 28.0818 30.4954 28.1614 30.3343 28.2411C30.3343 28.2411 30.2539 28.3206 29.1267 29.5939C29.0461 29.7531 28.8851 29.8327 28.7241 29.8327H28.6435C28.5631 29.8327 28.402 29.7531 28.3215 29.6735L27.9189 29.5144C27.0332 29.1165 26.2282 28.6389 25.584 28.0023C25.423 27.8431 25.1814 27.684 25.0204 27.5248C24.4568 26.9678 23.8931 26.331 23.4907 25.6148L23.4101 25.4557C23.3296 25.376 23.3296 25.2965 23.2491 25.1373C23.2491 24.9782 23.2491 24.819 23.3296 24.7394C23.3296 24.7394 23.6517 24.3415 23.8931 24.1028C24.0543 23.9435 24.1347 23.7049 24.2957 23.5457C24.4568 23.3069 24.5373 22.9886 24.4568 22.7499C24.3763 22.3519 23.4101 20.2032 23.1686 19.7258C23.0075 19.487 22.8466 19.4075 22.605 19.3278H21.7194C21.5582 19.3278 21.3973 19.4075 21.2362 19.4075L21.1556 19.487C20.9946 19.5666 20.8336 19.7258 20.6726 19.8053C20.5116 19.9646 20.431 20.1236 20.27 20.2829C19.7064 20.9991 19.3844 21.8745 19.3844 22.7499C19.3844 23.3865 19.5454 24.0232 19.787 24.5803L19.8675 24.819C20.5921 26.331 21.5582 27.684 22.8466 28.8777L23.1686 29.196C23.4101 29.4348 23.6517 29.5939 23.8127 29.8326C25.5035 31.2652 27.4358 32.2997 29.6097 32.8568C29.8513 32.9363 30.1733 32.9363 30.4149 33.0159H31.22C31.6226 33.0159 32.1056 32.8568 32.4278 32.6976C32.6692 32.5385 32.8303 32.5385 32.9913 32.3793L33.1524 32.2201C33.3134 32.0609 33.4744 31.9814 33.6355 31.8222C33.7965 31.6631 33.9575 31.5039 34.0381 31.3447C34.1991 31.0264 34.2795 30.6284 34.3601 30.2306V29.6735C34.3601 29.6735 34.2795 29.5939 34.1185 29.5144Z" fill="black"/>
</svg>
