<svg width="76" height="53" viewBox="0 0 76 53" fill="none" xmlns="http://www.w3.org/2000/svg">
<path d="M37.8411 53H37.7662C37.5339 53 14.2918 52.9546 8.42791 51.3471C5.20341 50.4701 2.68521 47.9266 1.81837 44.671C0.763907 38.6658 0.254712 32.576 0.297124 26.4773C0.269881 20.3687 0.792853 14.2702 1.85958 8.25714C2.75025 4.99858 5.25738 2.44329 8.47662 1.51299C14.1794 0 36.7808 0 37.74 0H37.8186C38.0547 0 61.3567 0.0453896 67.1607 1.65294C70.3784 2.53429 72.8915 5.07266 73.7627 8.32144C74.8507 14.349 75.3614 20.4682 75.2877 26.5946C75.314 32.6958 74.7897 38.7868 73.7215 44.792C72.8435 48.0436 70.3237 50.5815 67.1007 51.4605C61.4054 52.9849 38.8003 53 37.8411 53ZM30.3473 15.1488L30.3286 37.8436L49.8575 26.4962L30.3473 15.1488Z" fill="#EEA200"/>
</svg>
