<svg width="684" height="685" viewBox="0 0 684 685" fill="none" xmlns="http://www.w3.org/2000/svg">
<g clip-path="url(#clip0_9_48)">
<path d="M684 338.411C681.547 343.197 678.385 347.394 673.426 349.78C667.529 352.622 668.266 358.414 667.985 363.187C665.492 404.24 654.154 442.799 635.955 479.454C630.689 490.514 624.512 501.115 617.487 511.149C614.083 515.868 613.466 519.85 616.736 525.066C619.417 529.396 622.486 534.035 620.047 539.988C616.696 548.22 610.411 551.96 601.74 549.976C594.61 548.341 589.156 548.488 583.071 554.964C555.379 584.662 522.432 608.976 485.895 626.679C482.598 628.274 481.874 629.95 482.518 633.382C483.172 637.342 483.433 641.357 483.295 645.368C483.027 657.73 471.917 664.313 460.74 658.776C455.937 656.324 451.965 652.509 449.321 647.808C447.123 644.054 444.644 643.103 440.583 644.403C423.228 649.967 405.739 654.78 387.566 657.26C364.016 660.666 340.182 661.672 316.429 660.264C311.229 659.915 308.321 661.242 307.048 666.78C305.935 671.59 303.476 675.985 299.959 679.449C290.912 688.539 279.146 686.421 274.375 674.596C273.034 671.124 271.172 667.289 271.426 663.763C272.043 655.035 266.521 654.016 260.128 652.581C232.963 646.508 206.521 638.316 181.487 625.767C172.548 621.262 163.515 616.878 155.42 611.019C150.06 607.091 145.744 606.327 140.196 611.019C134.956 615.43 128.59 617.615 121.648 613.888C114.706 610.161 110.926 604.235 113.888 596.834C118.338 585.76 113.392 580.008 105.512 573.291C80.2364 551.719 60.4018 525.521 43.864 496.803C36.2486 483.665 29.476 470.057 23.5871 456.059C23.1703 454.725 22.4074 453.526 21.3762 452.584C20.3449 451.642 19.0823 450.991 17.7171 450.696C0.294793 446.111 -3.17627 432.167 8.79152 421.897C11.2574 419.779 10.708 417.339 10.2657 414.604C7.8802 399.668 3.3504 385.095 2.53289 370.038C0.911274 340.449 0.57623 310.886 7.8936 281.792C9.58222 275.089 9.79665 269.176 4.1411 263.022C-3.89996 254.173 0.308194 242.67 12.544 238.447C17.8243 236.597 20.3707 233.687 22.2737 228.82C35.8765 194.096 55.5905 163.031 79.5663 134.608C82.7454 130.609 86.2996 126.923 90.1805 123.601C93.397 120.919 93.799 118.345 92.7269 114.873C91.5156 111.534 90.4998 108.127 89.6847 104.67C88.0496 95.6335 94.2815 88.5813 103.502 88.3265C107.98 88.0657 112.433 89.1538 116.287 91.4504C120.911 94.3866 124.208 93.1263 128.161 90.0293C160.794 64.5556 197.368 46.6704 236.85 34.5503C240.455 33.4509 244.073 31.9895 247.772 31.6276C253.28 31.0913 254.848 28.383 254.473 23.2481C253.816 13.0586 257.931 5.2288 266.803 0H274.844C282.456 4.86681 288.822 10.7257 291.167 19.9231C291.783 22.3632 293.593 22.6045 295.777 22.7386C300.696 22.9665 305.48 21.8939 310.332 21.6526C349.84 19.6549 389.067 21.3174 427.088 33.5716C436.228 36.5212 442.848 35.8106 447.124 26.4926C447.703 25.5419 448.447 24.702 449.321 24.0123C454.119 19.3868 459.614 17.1478 466.301 19.2125C472.64 21.1565 475.683 25.9161 476.339 32.0968C476.864 36.7364 476.913 41.4175 476.487 46.0671C476.192 49.2714 476.835 50.773 479.904 52.1271C491.036 57.1827 501.833 62.9462 512.229 69.3822C539.507 85.8373 564.258 106.159 585.711 129.715C591.474 136.043 596.098 140.722 606.243 138.295C619.846 135.051 628.356 146.862 623.183 159.975C622.636 161.9 621.756 163.716 620.583 165.337C617.594 168.676 618.264 171.666 620.435 174.991C629.166 188.702 636.806 203.078 643.285 217.987C656.808 248.127 664.353 279.808 667.61 312.548C667.998 316.343 668.95 319.037 672.273 320.392C678.224 322.818 681.561 327.457 683.973 333.061L684 338.411ZM333.436 54.4868C323.921 54.0176 312.154 55.0365 300.441 56.2163C250.077 61.3111 203.948 78.6197 162.282 106.963C111.731 141.312 74.7551 187.057 54.1029 244.748C49.9752 256.305 48.4206 268.814 43.1269 280.465C39.3878 288.67 39.1063 298.618 38.1414 307.883C35.2198 335.89 35.2734 363.898 41.0764 391.584C43.1135 401.331 42.9393 412.07 51.5298 419.618C52.5342 420.675 53.2521 421.972 53.6156 423.384C53.9791 424.796 53.9762 426.278 53.6071 427.689C52.0659 433.052 53.7411 437.879 55.6039 442.585C71.0531 481.877 95.2481 517.132 126.352 545.672C180.562 595.762 244.676 622.871 318.145 627.161C362.967 629.746 407.809 622.422 449.482 605.71C495.945 587.617 537.006 557.931 568.758 519.475C607.744 472.617 629.187 418.693 633.542 358.2C634.507 344.659 633.046 330.728 632.618 317.04C631.84 291.714 625.287 266.951 616.053 243.3C592.126 181.931 552.14 133.902 496.094 99.2132C447.03 68.8057 393.423 54.2187 333.436 54.4868Z" fill="#F4BD05"/>
<path d="M464.6 320.968C465.337 356.618 465.806 392.335 455.299 426.885C443.117 466.946 414.638 490.596 375.679 502.568C356.97 508.328 337.272 510.154 317.823 507.931C279.454 503.668 247.772 487.539 225.512 455.027C222.269 450.28 222.644 447.773 228.554 445.239C247.558 437.123 266.365 428.579 284.976 419.605C295.161 414.658 303.497 415.676 312.449 422.554C323.532 431.081 335.447 438.563 347.093 446.352C351.609 449.369 354.785 453.766 358.94 457.078C361.741 459.317 365.185 461.958 368.12 457.842C371.055 453.726 368 451.058 364.703 449.208C346.463 438.965 332.914 422.943 316.59 410.327C313.91 408.289 313.763 406.546 317.26 405.098C336.988 396.973 356.635 388.634 376.456 380.724C380.276 379.195 384.685 379.209 388.826 378.512C390.269 378.296 391.644 377.751 392.843 376.918C394.042 376.086 395.034 374.989 395.741 373.712C397.939 369.851 396.197 366.713 391.801 366.15C388.441 365.89 385.085 366.692 382.205 368.443C358.591 380.898 332.19 385.497 307.504 394.976C302.679 396.826 298.592 394.895 294.625 391.785C270.502 372.827 246.191 354.097 222.094 335.113C217.538 331.52 210.917 330.005 209.229 323.261C207.714 313.876 208.076 304.491 207.888 294.998C207.866 294.787 207.919 294.575 208.04 294.4C208.16 294.225 208.34 294.1 208.545 294.046C239.249 294.046 269.952 293.832 300.642 294.261C350.658 294.985 400.633 292.371 450.648 292.8C450.716 292.753 450.793 292.721 450.874 292.705C450.954 292.69 451.037 292.691 451.118 292.708C451.198 292.726 451.274 292.76 451.341 292.808C451.407 292.856 451.464 292.917 451.506 292.987C451.821 293.442 452.26 293.795 452.772 294.005C453.283 294.214 453.844 294.271 454.387 294.167C461.919 292.934 463.769 296.527 463.487 303.552C463.353 309.317 461.919 315.337 464.6 320.968Z" fill="#F5BE02"/>
<path d="M318.413 220.977C332.083 224.999 334.843 234.867 333.745 246.84C333.553 250.419 334.415 253.975 336.224 257.069C338.73 261.869 336.639 263.625 331.949 263.706C328.384 263.706 324.819 263.773 321.227 263.706C310.506 263.558 307.825 261.118 307.437 250.379C307.169 244.172 307.584 237.924 307.517 231.69C307.517 228.418 306.512 225.442 302.84 224.436C299.168 223.431 295.965 223.82 296.367 228.874C297.158 238.474 294.089 248.462 299.597 257.646C300.937 259.885 301.178 262.754 296.916 263.411C288.538 264.622 280.05 264.879 271.614 264.175C264.136 263.625 262.916 260.287 267.741 254.482C269.152 252.769 269.891 250.6 269.818 248.381C270.166 232.601 270.756 216.808 270.756 201.014C270.756 193.559 272.244 185.716 265.221 179.562C262.715 177.364 264.216 173.114 268.572 173.167C283.903 173.328 299.396 171.304 314.513 174.32C329.376 177.283 338.542 191.28 335.125 204.299C334.573 206.802 333.454 209.145 331.853 211.147C330.252 213.149 328.212 214.755 325.891 215.842C323.519 217.009 320.879 217.8 318.413 220.977ZM307.129 198.842H307.249C307.249 194.619 307.531 190.355 307.155 186.159C306.82 182.297 304.234 180.246 300.294 180.394C295.63 180.568 297.613 184.215 297.506 186.427C296.997 194.404 296.622 202.395 296.514 210.399C296.514 212.839 294.772 216.62 299.758 216.848C304.073 217.035 306.713 215.078 307.062 210.855C307.383 206.873 307.129 202.851 307.129 198.842Z" fill="#F4BD05"/>
<path d="M365.761 264.041C359.529 264.041 353.311 264.041 347.079 264.041C345.069 264.041 342.737 264.524 341.893 262.204C341.048 259.885 341.075 257.284 343.943 255.93C346.811 254.576 346.851 251.747 346.865 249.065C346.932 228.794 346.972 208.509 347.106 188.237C347.106 185.153 346.798 182.351 343.688 180.917C341.29 179.804 341.37 177.82 341.705 175.849C342.134 173.167 344.519 173.167 346.409 173.1C359.998 172.98 373.588 172.98 387.164 172.993C389.844 172.993 391.881 173.972 392.618 176.881C393.355 179.79 394.669 182.807 395.138 185.85C395.5 188.197 397.336 191.548 393.623 192.742C392.028 193.332 390.268 193.294 388.7 192.634C387.132 191.974 385.874 190.742 385.18 189.189C383.17 185.421 382.085 179.267 376.416 181.144C370.747 183.022 374.58 188.867 374.043 192.862C373.414 197.461 373.829 202.247 373.909 206.886C373.909 208.964 373.213 211.619 376.751 211.74C379.431 211.847 381.535 211.27 382.393 208.281C383.049 206.001 383.411 203.414 386.789 203.28C390.166 203.146 392.98 203.561 392.752 208.133C392.525 212.705 392.752 217.036 392.645 221.54C392.645 224.222 392.726 227.145 389.174 227.842C385.877 228.485 383.586 227.372 382.701 223.82C382.313 222.543 381.629 221.376 380.704 220.414C379.364 218.886 377.394 219.275 375.678 219.529C373.521 219.864 373.909 221.782 373.883 223.256C373.731 233.088 373.601 242.889 373.494 252.658C373.494 254.509 373.641 256.372 375.893 256.828C377.206 257.147 378.588 257.021 379.822 256.47C381.057 255.92 382.074 254.975 382.714 253.785C384.175 251.318 384.912 248.422 386.279 245.901C387.834 242.978 390.3 240.82 393.811 241.624C397.832 242.576 396.223 246.21 396.411 248.891C396.399 249.344 396.331 249.795 396.21 250.232C393.771 263.92 393.771 263.961 379.779 264.39C375.116 264.524 370.398 264.39 365.761 264.39V264.041Z" fill="#F4BD05"/>
<path d="M407.414 218.014V191.307C407.414 187.151 408.285 182.78 403.018 180.581C401.196 179.844 401.316 177.578 401.678 175.808C402.281 173.221 404.72 173.221 406.529 173.127C414.302 172.886 422.089 172.953 429.875 172.912H439.886C451.948 172.912 453.034 173.65 455.03 185.462C455.433 187.835 456.88 191.267 453.556 192.447C452.724 192.807 451.826 192.988 450.919 192.978C450.013 192.968 449.119 192.766 448.295 192.386C447.472 192.007 446.738 191.458 446.141 190.775C445.544 190.092 445.098 189.291 444.832 188.425C443.733 185.743 442.634 183.062 439.819 181.614C436.308 179.831 433.842 179.884 433.909 184.872C434.016 192.219 433.909 199.62 433.909 206.913C433.909 208.669 432.985 211.244 436.281 211.324C438.493 211.324 440.838 211.726 441.79 208.857C442.224 207.598 442.734 206.367 443.317 205.17C444.658 202.261 447.338 202.864 449.71 203.132C452.31 203.441 452.699 205.358 452.685 207.543C452.685 212.665 452.685 217.786 452.685 222.908C452.685 225.308 452.337 227.493 449.348 227.721C446.668 227.936 443.894 228.19 442.969 224.584C442.606 223.297 442.079 222.062 441.401 220.91C440.222 218.778 438.117 218.832 436.121 219.033C433.547 219.301 433.909 221.406 433.896 223.122C433.896 232.253 433.775 241.383 433.896 250.5C433.896 252.471 432.556 255.595 435.518 256.211C436.958 256.499 438.452 256.344 439.803 255.767C441.154 255.191 442.3 254.219 443.09 252.98C444.233 250.846 445.153 248.599 445.837 246.277C447.271 242.375 450.353 241.571 453.878 242.254C457.979 243.019 456.17 246.277 456.304 248.757C456.323 249.425 456.283 250.094 456.183 250.755C454.535 262.674 453.717 263.719 441.763 264.028C429.808 264.336 417.747 264.028 405.752 263.907C403.97 263.907 402.134 263.706 401.41 261.561C400.686 259.416 401.182 257.391 403.152 256.359C407.307 254.187 407.32 250.567 407.267 246.652C407.334 237.16 407.414 227.587 407.414 218.014Z" fill="#F4BD05"/>
<path d="M210.984 218.054C210.984 209.152 210.984 200.25 210.984 191.347C210.984 187.325 211.828 183.303 207.299 180.206C204.618 178.396 205.583 174.843 209.322 173.757C211.02 173.26 212.78 173.008 214.549 173.006C226.356 173.006 238.15 173.14 249.943 172.912C255.237 172.805 257.689 175.232 258.507 180.126C258.869 182.311 259.74 184.416 259.914 186.601C260.102 189.095 261.147 192.272 257.475 193.305C254.272 194.19 251.886 192.782 250.278 189.94C248.348 186.534 247.397 182.311 242.894 180.997C240.428 180.273 238.565 180.058 238.552 183.678C238.498 192.125 238.333 200.576 238.056 209.031C238.056 210.707 238.351 211.713 240.039 211.606C242.103 211.445 244.676 212.356 245.815 209.541C246.283 208.066 246.838 206.62 247.477 205.21C248.001 204.34 248.77 203.643 249.688 203.209C250.606 202.775 251.632 202.622 252.637 202.77C253.528 202.848 254.368 203.222 255.024 203.831C255.679 204.441 256.113 205.252 256.255 206.135C257.667 212.205 257.699 218.514 256.349 224.597C256.315 225.042 256.188 225.475 255.976 225.867C255.765 226.26 255.474 226.605 255.122 226.878C254.77 227.152 254.365 227.35 253.932 227.458C253.5 227.566 253.049 227.583 252.61 227.507C250.667 227.413 248.482 228.016 247.464 225.536C246.921 223.851 246.221 222.222 245.373 220.669C244.794 219.839 243.988 219.193 243.051 218.81C242.115 218.427 241.087 218.323 240.093 218.51C237.587 218.926 238.444 221.299 238.431 222.908C238.324 232.038 238.364 241.168 238.27 250.285C238.27 252.752 238.766 254.71 241.46 255.367C244.154 256.024 245.588 257.431 245.011 260.086C244.489 262.459 242.478 263.626 240.2 264.215C239.551 264.374 238.884 264.446 238.217 264.43C228.835 264.282 219.534 264.162 210.193 263.894C208.277 263.894 205.958 263.733 205.583 261.051C205.302 259.04 205.154 256.734 207.5 255.876C211.52 254.442 211.011 251.291 210.998 248.167C210.971 238.121 210.966 228.083 210.984 218.054Z" fill="#F4BD05"/>
<path d="M279.883 404.723C259.78 411.426 239.918 417.969 220.204 424.833C215.139 426.576 213.276 425.209 212.096 420.154C209.59 409.509 209.416 398.622 208.277 387.856C207.366 379.49 207.5 371.004 207.231 362.57C207.111 358.951 208.572 357.409 212.07 359.5C235.013 373.055 257.984 386.569 279.078 402.953C279.4 403.141 279.454 403.677 279.883 404.723Z" fill="#F4BD05"/>
<path d="M450.715 292.88C400.7 292.451 350.724 295.065 300.709 294.341C270.019 293.912 239.315 294.181 208.612 294.127C212.632 291.177 216.948 292.786 221.25 292.786C269.576 292.867 317.917 293.483 366.23 292.531C393.154 291.995 420.078 292.236 446.989 291.901C448.289 291.928 449.696 291.673 450.715 292.88Z" fill="#F4BD05"/>
<path d="M464.599 320.968C461.919 315.337 463.353 309.317 463.554 303.539C463.795 296.567 461.986 292.974 454.454 294.154C453.911 294.257 453.35 294.201 452.838 293.991C452.327 293.782 451.887 293.428 451.573 292.974C463.273 292.438 463.393 292.438 464.251 304.223C464.666 309.84 464.505 315.417 464.599 320.968Z" fill="#F4BD05"/>
<path d="M207.955 295.079C208.076 304.464 207.714 313.969 209.296 323.341C205.972 314.05 206.883 304.571 207.955 295.079Z" fill="#F4BD05"/>
</g>
<defs>
<clipPath id="clip0_9_48">
<rect width="684" height="685" fill="white"/>
</clipPath>
</defs>
</svg>
